<?xml version="1.0" standalone="no"?>
<!DOCTYPE svg PUBLIC "-//W3C//DTD SVG 20010904//EN"
 "http://www.w3.org/TR/2001/REC-SVG-20010904/DTD/svg10.dtd">
<svg version="1.0" xmlns="http://www.w3.org/2000/svg"
 width="720.000000pt" height="660.000000pt" viewBox="0 0 720.000000 660.000000"
 preserveAspectRatio="xMidYMid meet">
<metadata>
Created by potrace 1.12, written by Peter Selinger 2001-2015
</metadata>
<g transform="translate(0.000000,660.000000) scale(0.100000,-0.100000)"
fill="#000000" stroke="none">
<path d="M2568 4222 c-9 -4 -30 -19 -46 -33 -25 -23 -31 -37 -37 -95 -4 -38
-12 -72 -19 -76 -8 -6 -8 -10 0 -15 6 -5 18 -30 27 -58 l16 -49 -36 -37 c-32
-32 -58 -45 -110 -51 -7 -1 -13 -4 -13 -8 0 -4 -21 -10 -46 -13 -31 -3 -54
-13 -73 -31 -15 -14 -31 -26 -37 -26 -16 0 -138 -130 -217 -231 -69 -89 -75
-100 -79 -154 -4 -50 -9 -61 -41 -90 -21 -19 -37 -38 -37 -43 0 -31 -77 -136
-160 -220 -51 -52 -90 -118 -90 -155 0 -18 -6 -41 -13 -52 -32 -48 -40 -83
-26 -115 8 -16 20 -30 27 -30 7 0 30 -9 52 -20 50 -26 121 -27 143 -2 19 21
22 48 7 57 -18 11 -11 23 10 18 27 -7 28 33 1 56 -11 9 -27 41 -37 70 l-17 53
36 34 c20 19 40 34 45 34 6 0 30 23 53 51 24 29 64 67 89 85 26 19 68 67 100
115 52 79 57 82 94 84 32 2 46 9 68 35 15 19 29 32 31 29 2 -2 15 -47 28 -99
25 -95 25 -95 5 -134 -16 -32 -17 -46 -9 -83 10 -44 10 -44 -34 -86 -25 -23
-49 -43 -54 -45 -5 -2 -9 -16 -8 -30 1 -25 2 -25 7 -5 10 33 92 100 102 83 4
-7 15 -10 24 -7 9 4 23 4 31 1 13 -5 13 -8 0 -27 -8 -12 -15 -31 -15 -42 -1
-42 -24 -56 -81 -51 -30 3 -47 3 -38 0 23 -7 19 -52 -7 -89 -38 -54 -55 -95
-49 -118 5 -17 4 -19 -4 -7 -10 13 -12 13 -21 0 -5 -8 -10 -20 -10 -26 0 -5
-11 -33 -25 -61 -13 -28 -27 -63 -31 -77 -3 -14 -10 -29 -15 -32 -5 -3 -9 -15
-9 -28 0 -12 -4 -26 -9 -32 -5 -5 -12 -19 -16 -31 -5 -17 -2 -23 10 -23 9 0
14 -4 10 -10 -3 -5 -12 -7 -19 -4 -7 3 -20 -6 -29 -19 -9 -14 -32 -35 -52 -47
-49 -30 -75 -88 -75 -165 0 -48 -5 -67 -20 -85 -11 -13 -20 -29 -20 -37 0 -7
-4 -13 -9 -13 -5 0 -12 -21 -16 -47 -4 -27 -10 -55 -15 -63 -4 -8 -10 -57 -14
-109 l-6 -93 25 4 c14 3 28 1 31 -3 3 -5 21 -9 40 -9 28 0 38 -6 51 -29 21
-35 62 -40 64 -7 4 74 7 96 20 124 8 18 17 32 21 32 5 0 8 9 8 21 0 11 16 50
35 88 19 37 35 74 35 83 0 9 16 33 35 54 19 22 35 46 35 54 1 49 56 140 84
140 6 0 17 13 24 28 14 33 160 180 215 218 21 14 50 27 65 28 15 2 30 4 35 5
4 0 6 4 5 9 -2 4 5 18 14 31 15 21 22 23 64 17 26 -3 52 -10 58 -15 26 -20
108 -61 124 -61 43 0 212 -108 283 -181 26 -27 54 -49 62 -49 8 0 46 -29 83
-64 41 -37 82 -66 101 -70 17 -4 37 -14 44 -22 6 -8 18 -14 26 -14 23 0 64
-30 125 -92 32 -31 77 -70 100 -85 49 -32 67 -52 68 -73 0 -16 33 -62 63 -89
9 -8 17 -20 17 -27 0 -6 11 -16 25 -22 14 -7 33 -25 43 -41 18 -33 45 -41 132
-41 73 0 95 20 85 79 -3 22 -13 42 -21 45 -8 3 -14 11 -14 19 0 18 -42 57 -61
57 -15 0 -60 36 -150 118 -42 38 -47 48 -43 75 3 18 8 52 11 77 3 25 12 49 19
53 16 9 19 37 5 37 -5 0 -17 7 -25 16 -11 11 -40 16 -99 18 -46 2 -89 6 -96
10 -6 4 -23 26 -38 49 -14 23 -35 54 -47 68 -11 14 12 -8 53 -50 77 -78 79
-78 20 -1 -59 76 -92 111 -139 143 -52 36 -70 52 -70 64 0 4 -30 35 -65 67
-36 33 -65 65 -65 72 0 7 -8 27 -17 45 -18 32 -31 49 -92 119 -17 19 -31 40
-31 46 0 5 -20 27 -44 48 -35 29 -46 46 -51 79 -4 23 -15 51 -25 62 -11 11
-19 23 -19 28 0 4 -8 22 -17 40 -10 19 -18 60 -19 103 -3 72 -8 103 -27 141
-8 17 -8 26 1 37 7 8 10 24 7 34 -4 11 0 24 9 32 10 8 15 30 15 67 0 65 22
123 50 130 11 3 20 13 20 23 0 10 7 21 16 24 23 9 82 7 88 -3 6 -9 107 -16
195 -13 30 1 60 -3 68 -9 8 -8 33 -9 71 -4 31 4 82 8 112 10 40 2 66 10 94 29
21 14 43 26 48 26 5 0 26 11 46 25 24 17 50 25 78 25 25 0 47 6 54 15 7 8 21
15 31 15 11 0 19 4 19 9 0 4 17 27 37 51 42 48 46 71 18 117 -23 37 -51 48
-72 27 -15 -15 -25 -17 -60 -14 -18 1 -23 -6 -29 -37 -13 -68 -66 -87 -244
-89 -69 0 -162 -5 -208 -9 -83 -8 -132 3 -132 29 0 5 -10 20 -21 33 -20 20
-28 22 -79 16 -39 -4 -88 1 -156 15 -54 11 -116 23 -137 27 l-37 6 1 122 c0
79 -3 123 -10 125 -6 2 -11 9 -11 15 0 6 -12 22 -27 34 -23 20 -37 23 -107 22
-45 0 -88 -3 -98 -7z m700 -474 c7 -7 36 -12 71 -11 63 2 59 5 81 -61 7 -22 6
-26 -2 -18 -7 7 -31 12 -54 12 -76 0 -163 13 -167 25 -3 6 -3 23 0 38 4 21 11
27 32 27 15 0 32 -5 39 -12z m-645 -97 c-4 -15 3 -20 42 -25 30 -5 48 -13 51
-24 3 -9 9 -24 13 -32 21 -41 -32 -82 -86 -68 -20 5 -47 5 -68 -1 -31 -8 -37
-7 -55 16 -19 25 -20 25 -20 4 0 -11 5 -21 10 -21 18 0 10 -34 -15 -62 -23
-27 -43 -38 -30 -18 3 6 -4 10 -17 10 -33 0 -49 13 -38 30 5 9 5 19 -2 28 -8
9 -8 16 0 24 8 8 8 14 -2 22 -29 23 -28 53 1 74 31 22 85 20 77 -3 -6 -14 21
-45 39 -45 20 0 57 30 57 46 0 8 5 14 11 14 5 0 7 5 4 10 -7 11 12 40 25 40 5
0 6 -8 3 -19z m-621 -357 c25 -34 27 -44 19 -67 -7 -17 -18 -27 -30 -27 -11 0
-39 -23 -66 -55 -26 -30 -55 -55 -64 -55 -15 -1 -81 -53 -81 -65 0 -3 -9 -15
-20 -27 -11 -12 -20 -17 -20 -10 0 6 5 14 10 17 6 4 9 12 8 18 -1 7 15 39 37
72 54 82 62 96 75 124 16 35 84 120 94 118 5 -2 22 -21 38 -43z m1768 -1378
c0 -18 167 -169 211 -190 11 -5 19 -16 19 -24 0 -8 6 -12 15 -8 19 7 19 8 -6
-50 -40 -96 -40 -96 -74 -90 -29 6 -125 85 -125 103 -1 5 -19 26 -40 48 -22
22 -40 49 -40 61 0 12 -7 27 -15 34 -19 16 -19 49 -1 56 8 3 17 21 20 40 7 33
36 50 36 20z"/>
</g>
</svg>
